<svg width="600" height="600" viewBox="0 0 600 600" fill="none" xmlns="http://www.w3.org/2000/svg">
<path d="M130.058 71.5602C198.846 123.202 272.836 227.911 300.002 284.104C327.169 227.915 401.155 123.201 469.946 71.5602C519.58 34.2973 600 5.46545 600 97.2101C600 115.533 589.495 251.13 583.334 273.144C561.917 349.678 483.875 369.199 414.455 357.384C535.799 378.036 566.668 446.444 500.003 514.852C373.394 644.772 318.029 482.255 303.835 440.612C301.235 432.978 300.018 429.406 300 432.443C299.982 429.406 298.765 432.978 296.164 440.612C281.978 482.255 226.613 644.776 99.9967 514.852C33.3308 446.444 64.1986 378.032 185.545 357.384C116.123 369.199 38.0801 349.678 16.6665 273.144C10.5049 251.128 0 115.531 0 97.2101C0 5.46545 80.4223 34.2973 130.054 71.5602H130.058Z" fill="#333333"/>
</svg>
